<svg width="148" height="148" viewBox="0 0 148 148" fill="none" xmlns="http://www.w3.org/2000/svg">
<circle cx="74" cy="74" r="74" fill="#DDDDDD"/>
<path d="M42.75 117.75H105.25V102.125C105.243 96.3254 102.937 90.7653 98.8357 86.6643C94.7347 82.5634 89.1746 80.2566 83.375 80.25H64.625C58.8254 80.2566 53.2653 82.5634 49.1643 86.6643C45.0634 90.7653 42.7566 96.3254 42.75 102.125V117.75Z" fill="white"/>
<path d="M52.125 52.125C52.125 56.4515 53.4079 60.6808 55.8116 64.2781C58.2153 67.8754 61.6317 70.6792 65.6288 72.3349C69.6259 73.9905 74.0243 74.4237 78.2676 73.5797C82.5109 72.7356 86.4087 70.6522 89.468 67.593C92.5272 64.5337 94.6106 60.6359 95.4547 56.3926C96.2987 52.1493 95.8655 47.7509 94.2099 43.7538C92.5542 39.7567 89.7504 36.3403 86.1531 33.9366C82.5558 31.5329 78.3265 30.25 74 30.25C68.1984 30.25 62.6344 32.5547 58.532 36.657C54.4297 40.7594 52.125 46.3234 52.125 52.125V52.125Z" fill="white"/>
</svg>
