<svg width="27" height="27" viewBox="0 0 27 27" fill="none" xmlns="http://www.w3.org/2000/svg">
<path d="M10.25 3.375H4.375C3.82272 3.375 3.375 3.82272 3.375 4.375V13.625C3.375 14.1773 3.82272 14.625 4.375 14.625H10.25C10.8023 14.625 11.25 14.1773 11.25 13.625V4.375C11.25 3.82272 10.8023 3.375 10.25 3.375Z" stroke="#7887D4" stroke-width="2.8" stroke-linecap="round" stroke-linejoin="round"/>
<path d="M22.625 3.375H16.75C16.1977 3.375 15.75 3.82272 15.75 4.375V6.875C15.75 7.42728 16.1977 7.875 16.75 7.875H22.625C23.1773 7.875 23.625 7.42728 23.625 6.875V4.375C23.625 3.82272 23.1773 3.375 22.625 3.375Z" stroke="#7887D4" stroke-width="2.8" stroke-linecap="round" stroke-linejoin="round"/>
<path d="M22.625 12.375H16.75C16.1977 12.375 15.75 12.8227 15.75 13.375V22.625C15.75 23.1773 16.1977 23.625 16.75 23.625H22.625C23.1773 23.625 23.625 23.1773 23.625 22.625V13.375C23.625 12.8227 23.1773 12.375 22.625 12.375Z" stroke="#7887D4" stroke-width="2.8" stroke-linecap="round" stroke-linejoin="round"/>
<path d="M9.875 19H4C3.44772 19 3 19.4477 3 20V22.5C3 23.0523 3.44772 23.5 4 23.5H9.875C10.4273 23.5 10.875 23.0523 10.875 22.5V20C10.875 19.4477 10.4273 19 9.875 19Z" stroke="#7887D4" stroke-width="2.8" stroke-linecap="round" stroke-linejoin="round"/>
</svg>
