<svg xmlns="http://www.w3.org/2000/svg" width="27" height="27" fill="none" viewBox="0 0 27 27">
  <path stroke="#BCBCBC" stroke-linecap="round" stroke-linejoin="round" stroke-width="2.8" d="M10.25 3.375H4.375a1 1 0 0 0-1 1v9.25a1 1 0 0 0 1 1h5.875a1 1 0 0 0 1-1v-9.25a1 1 0 0 0-1-1Zm12.375 0H16.75a1 1 0 0 0-1 1v2.5a1 1 0 0 0 1 1h5.875a1 1 0 0 0 1-1v-2.5a1 1 0 0 0-1-1Zm0 9H16.75a1 1 0 0 0-1 1v9.25a1 1 0 0 0 1 1h5.875a1 1 0 0 0 1-1v-9.25a1 1 0 0 0-1-1ZM9.875 19H4a1 1 0 0 0-1 1v2.5a1 1 0 0 0 1 1h5.875a1 1 0 0 0 1-1V20a1 1 0 0 0-1-1Z"/>
</svg>
