<svg width="26" height="26" viewBox="0 0 26 26" fill="none" xmlns="http://www.w3.org/2000/svg">
<path d="M13.0002 15.1666C14.1968 15.1666 15.1668 14.1965 15.1668 12.9999C15.1668 11.8033 14.1968 10.8333 13.0002 10.8333C11.8035 10.8333 10.8335 11.8033 10.8335 12.9999C10.8335 14.1965 11.8035 15.1666 13.0002 15.1666Z" fill="#BCBCBC"/>
<path d="M5.68766 15.1666C6.88428 15.1666 7.85433 14.1965 7.85433 12.9999C7.85433 11.8033 6.88428 10.8333 5.68766 10.8333C4.49105 10.8333 3.521 11.8033 3.521 12.9999C3.521 14.1965 4.49105 15.1666 5.68766 15.1666Z" fill="#BCBCBC"/>
<path d="M20.3127 15.1666C21.5093 15.1666 22.4793 14.1965 22.4793 12.9999C22.4793 11.8033 21.5093 10.8333 20.3127 10.8333C19.116 10.8333 18.146 11.8033 18.146 12.9999C18.146 14.1965 19.116 15.1666 20.3127 15.1666Z" fill="#BCBCBC"/>
</svg>
