<svg xmlns="http://www.w3.org/2000/svg" width="28" height="29" fill="none" viewBox="0 0 28 29">
  <path fill="#fff" d="M9.134 17.521c-2.194.146-4.185 1.012-5.315 4.095a.836.836 0 0 1-.798.566c-.607 0-2.486-1.568-3.021-1.946C0 24.9 2.075 29 7 29c4.149 0 7-2.48 7-6.808 0-.176-.035-.344-.053-.517l-4.813-4.154ZM25.041 0c-.83 0-1.606.38-2.199.932C11.664 11.274 10.5 11.517 10.5 14.562a5.4 5.4 0 0 0 .478 2.192l3.49 3.012c.394.102.8.172 1.224.172 3.397 0 5.366-2.576 11.548-14.527.403-.812.76-1.69.76-2.604C28 1.169 26.578 0 25.04 0Z"/>
</svg>
