<svg width="26" height="26" viewBox="0 0 26 26" fill="none" xmlns="http://www.w3.org/2000/svg">
<path d="M26 6.20002V7.06668C26 7.18161 25.9543 7.29183 25.8731 7.3731C25.7918 7.45436 25.6816 7.50001 25.5667 7.50001H24.2667V8.15002C24.2667 8.50898 23.9756 8.80002 23.6167 8.80002H2.38333C2.02437 8.80002 1.73333 8.50898 1.73333 8.15002V7.50001H0.433333C0.318406 7.50001 0.208186 7.45436 0.12692 7.3731C0.0456546 7.29183 0 7.18161 0 7.06668V6.20002C6.19744e-07 6.11429 0.0254301 6.03048 0.0730709 5.95921C0.120712 5.88794 0.188423 5.8324 0.267637 5.79961L12.8343 1.03295C12.9404 0.989017 13.0596 0.989017 13.1657 1.03295L25.7324 5.79961C25.8116 5.8324 25.8793 5.88794 25.9269 5.95921C25.9746 6.03048 26 6.11429 26 6.20002ZM24.7 22.6667H1.3C0.582021 22.6667 0 23.2487 0 23.9667V24.8333C0 24.9483 0.0456546 25.0585 0.12692 25.1398C0.208186 25.221 0.318406 25.2667 0.433333 25.2667H25.5667C25.6816 25.2667 25.7918 25.221 25.8731 25.1398C25.9543 25.0585 26 24.9483 26 24.8333V23.9667C26 23.2487 25.418 22.6667 24.7 22.6667ZM4.33333 9.66668V20.0667H2.38333C2.02437 20.0667 1.73333 20.3577 1.73333 20.7167V21.8H24.2667V20.7167C24.2667 20.3577 23.9756 20.0667 23.6167 20.0667H21.6667V9.66668H18.2V20.0667H14.7333V9.66668H11.2667V20.0667H7.8V9.66668H4.33333Z" fill="#7887D4"/>
</svg>
