<svg xmlns="http://www.w3.org/2000/svg" width="26" height="26" fill="none" viewBox="0 0 26 26">
  <path fill="#BCBCBC" d="M26 6.2v.867a.434.434 0 0 1-.433.433h-1.3v.65a.65.65 0 0 1-.65.65H2.383a.65.65 0 0 1-.65-.65V7.5h-1.3A.433.433 0 0 1 0 7.067V6.2a.433.433 0 0 1 .268-.4l12.566-4.767a.433.433 0 0 1 .332 0L25.732 5.8a.433.433 0 0 1 .268.4Zm-1.3 16.467H1.3a1.3 1.3 0 0 0-1.3 1.3v.866a.433.433 0 0 0 .433.434h25.134a.434.434 0 0 0 .433-.434v-.866a1.3 1.3 0 0 0-1.3-1.3Zm-20.367-13v10.4h-1.95a.65.65 0 0 0-.65.65V21.8h22.534v-1.083a.65.65 0 0 0-.65-.65h-1.95v-10.4H18.2v10.4h-3.467v-10.4h-3.466v10.4H7.8v-10.4H4.333Z"/>
</svg>
