<svg width="16" height="18" viewBox="0 0 16 18" fill="none" xmlns="http://www.w3.org/2000/svg">
<path d="M15.1137 8.68983C14.6995 9.10402 14.0279 9.10402 13.6137 8.68983L9.06068 4.13676V16.4247C9.06068 17.0105 8.58583 17.4853 8.00007 17.4853C7.41432 17.4853 6.93947 17.0105 6.93947 16.4247V4.13676L2.3864 8.68983C1.97221 9.10402 1.30067 9.10402 0.886474 8.68983C0.472281 8.27564 0.472281 7.6041 0.886474 7.18991L7.25011 0.826269C7.44901 0.627367 7.71878 0.515625 8.00007 0.515625C8.28136 0.515625 8.55113 0.627367 8.75003 0.826269L15.1137 7.18991C15.5279 7.6041 15.5279 8.27564 15.1137 8.68983Z" fill="white"/>
</svg>
