<svg width="18" height="18" viewBox="0 0 18 18" fill="none" xmlns="http://www.w3.org/2000/svg">
<path d="M0.020752 17.5524L3.89575 6.71908L10.9166 13.6566L0.020752 17.5524ZM2.12492 15.4482L8.66659 13.1149L4.43742 8.86491L2.12492 15.4482ZM9.95825 9.94824L9.24992 9.23991L14.2499 4.23991C14.6944 3.79546 15.2569 3.56977 15.9374 3.56283C16.618 3.55588 17.1805 3.77463 17.6249 4.21908L17.9791 4.57324L17.2708 5.28158L16.8749 4.88574C16.611 4.62185 16.3055 4.48644 15.9583 4.47949C15.611 4.47255 15.2985 4.60796 15.0208 4.88574L9.95825 9.94824ZM6.64575 6.71908L5.93742 6.01074L6.56242 5.38574C6.88186 5.0663 7.03117 4.70171 7.01034 4.29199C6.9895 3.88227 6.8402 3.53852 6.56242 3.26074L5.97909 2.67741L6.68742 1.96908L7.22909 2.51074C7.7152 2.99685 7.95478 3.60449 7.94784 4.33366C7.94089 5.06283 7.69436 5.67046 7.20825 6.15658L6.64575 6.71908ZM8.33325 8.32324L7.62492 7.61491L10.7916 4.44824C11.0555 4.18435 11.1839 3.84755 11.177 3.43783C11.1701 3.0281 11.0346 2.6913 10.7708 2.42741L9.49992 1.15658L10.2083 0.448242L11.5208 1.76074C11.9513 2.20519 12.1735 2.76421 12.1874 3.43783C12.2013 4.11144 11.986 4.67046 11.5416 5.11491L8.33325 8.32324ZM11.6249 11.6357L10.9166 10.9274L11.8958 9.94824C12.3819 9.46213 12.9652 9.21213 13.6458 9.19824C14.3263 9.18435 14.9096 9.42046 15.3958 9.90657L16.4583 10.9691L15.7499 11.6774L14.6666 10.5941C14.3471 10.2746 14.0138 10.1149 13.6666 10.1149C13.3194 10.1149 12.986 10.2746 12.6666 10.5941L11.6249 11.6357Z" fill="current"/>
</svg>
