<svg xmlns="http://www.w3.org/2000/svg" width="13" height="15" fill="none" viewBox="0 0 13 15">
  <path fill="#F52929" d="M0 9.041C0 7.603.339 6.321 1.016 5.2c.677-1.125 1.421-2.07 2.234-2.837.813-.767 1.557-1.353 2.234-1.757L6.5 0v2.712c0 .507.17.908.508 1.202a1.69 1.69 0 0 0 1.137.442c.23 0 .45-.048.66-.144a1.61 1.61 0 0 0 .58-.472l.365-.452c.975.575 1.76 1.373 2.356 2.394A6.54 6.54 0 0 1 13 9.042c0 1.3-.332 2.475-.995 3.523a6.413 6.413 0 0 1-2.62 2.373 3.99 3.99 0 0 0 .72-1.191 3.79 3.79 0 0 0 .254-1.377c0-.52-.094-1.01-.284-1.47a3.848 3.848 0 0 0-.833-1.242L6.5 6.945 3.778 9.658c-.379.37-.663.784-.853 1.243a3.81 3.81 0 0 0-.284 1.469c0 .48.084.938.254 1.377.169.438.41.835.72 1.191a6.413 6.413 0 0 1-2.62-2.373C.332 11.517 0 10.342 0 9.041Zm6.5-.37 1.869 1.85c.244.246.433.527.569.842.135.315.203.65.203 1.007 0 .726-.258 1.346-.772 1.86A2.547 2.547 0 0 1 6.5 15a2.547 2.547 0 0 1-1.869-.77 2.532 2.532 0 0 1-.772-1.86c0-.356.065-.692.193-1.007.129-.315.322-.596.58-.842L6.5 8.67Z"/>
</svg>
