<svg width="14" height="16" viewBox="0 0 14 16" fill="none" xmlns="http://www.w3.org/2000/svg">
<path d="M1.52634 9.26316C1.52634 10.1474 1.72634 10.9789 2.12634 11.7579C2.52634 12.5368 3.08424 13.186 3.80003 13.7053C3.74389 13.5368 3.70178 13.3649 3.67371 13.1895C3.64564 13.014 3.6316 12.8421 3.6316 12.6737C3.6316 12.2246 3.71582 11.8035 3.88424 11.4105C4.05266 11.0175 4.29827 10.6596 4.62108 10.3368L7.00003 8L9.37897 10.3368C9.70178 10.6596 9.94739 11.0175 10.1158 11.4105C10.2842 11.8035 10.3684 12.2246 10.3684 12.6737C10.3684 12.8421 10.3544 13.014 10.3263 13.1895C10.2983 13.3649 10.2562 13.5368 10.2 13.7053C10.9158 13.186 11.4737 12.5368 11.8737 11.7579C12.2737 10.9789 12.4737 10.1474 12.4737 9.26316C12.4737 8.50526 12.3123 7.76491 11.9895 7.04211C11.6667 6.3193 11.2035 5.65614 10.6 5.05263C10.3053 5.26316 9.99652 5.42807 9.67371 5.54737C9.3509 5.66667 9.0281 5.72632 8.70529 5.72632C7.84915 5.72632 7.14038 5.43509 6.57897 4.85263C6.01757 4.27018 5.73687 3.53684 5.73687 2.65263V2.23158C5.09125 2.69474 4.5088 3.20702 3.9895 3.76842C3.4702 4.32982 3.0281 4.91579 2.66318 5.52632C2.29827 6.13684 2.01757 6.7614 1.82108 7.4C1.62459 8.0386 1.52634 8.65965 1.52634 9.26316ZM7.00003 9.76842L5.50529 11.2421C5.3088 11.4386 5.15792 11.6561 5.05266 11.8947C4.94739 12.1333 4.89476 12.393 4.89476 12.6737C4.89476 13.2491 5.09827 13.7368 5.50529 14.1368C5.91231 14.5368 6.41055 14.7368 7.00003 14.7368C7.5895 14.7368 8.08775 14.5368 8.49476 14.1368C8.90178 13.7368 9.10529 13.2491 9.10529 12.6737C9.10529 12.393 9.05266 12.1333 8.94739 11.8947C8.84213 11.6561 8.69125 11.4386 8.49476 11.2421L7.00003 9.76842ZM7.00003 0V2.77895C7.00003 3.25614 7.16494 3.65614 7.49476 3.97895C7.82459 4.30175 8.2281 4.46316 8.70529 4.46316C8.95792 4.46316 9.19301 4.41053 9.41055 4.30526C9.6281 4.2 9.82108 4.04211 9.9895 3.83158L10.3684 3.36842C11.407 3.95789 12.2281 4.77895 12.8316 5.83158C13.4351 6.88421 13.7369 8.02807 13.7369 9.26316C13.7369 11.1439 13.0842 12.7368 11.779 14.0421C10.4737 15.3474 8.88073 16 7.00003 16C5.11932 16 3.52634 15.3474 2.22108 14.0421C0.915815 12.7368 0.263184 11.1439 0.263184 9.26316C0.263184 7.46667 0.866692 5.73684 2.07371 4.07368C3.28073 2.41053 4.92283 1.05263 7.00003 0Z" fill="current"/>
</svg>
