<svg width="17" height="17" viewBox="0 0 17 17" fill="none" xmlns="http://www.w3.org/2000/svg">
<path d="M5.63444 12.5101L8.65006 9.49444L11.6657 12.5101L12.5101 11.6657L9.49444 8.65006L12.5101 5.63444L11.6657 4.79006L8.65006 7.80569L5.63444 4.79006L4.79006 5.63444L7.80569 8.65006L4.79006 11.6657L5.63444 12.5101ZM8.65006 16.6917C7.55104 16.6917 6.51232 16.4806 5.53392 16.0584C4.55552 15.6363 3.70109 15.0599 2.97064 14.3295C2.24019 13.599 1.66387 12.7446 1.24168 11.7662C0.819492 10.7878 0.608398 9.74909 0.608398 8.65006C0.608398 7.53763 0.819492 6.49222 1.24168 5.51381C1.66387 4.53541 2.24019 3.68434 2.97064 2.96059C3.70109 2.23684 4.55552 1.66387 5.53392 1.24168C6.51232 0.819492 7.55104 0.608398 8.65006 0.608398C9.76249 0.608398 10.8079 0.819492 11.7863 1.24168C12.7647 1.66387 13.6158 2.23684 14.3395 2.96059C15.0633 3.68434 15.6363 4.53541 16.0584 5.51381C16.4806 6.49222 16.6917 7.53763 16.6917 8.65006C16.6917 9.74909 16.4806 10.7878 16.0584 11.7662C15.6363 12.7446 15.0633 13.599 14.3395 14.3295C13.6158 15.0599 12.7647 15.6363 11.7863 16.0584C10.8079 16.4806 9.76249 16.6917 8.65006 16.6917Z" fill="#C4C4C4"/>
</svg>
