<svg xmlns="http://www.w3.org/2000/svg" width="9" height="12" fill="none" viewBox="0 0 9 12">
  <path fill="#333" d="M.844 4.086h5.484V2.714c0-.516-.177-.954-.533-1.315A1.747 1.747 0 0 0 4.502.857c-.508 0-.94.18-1.296.542-.356.36-.534.8-.534 1.315h-.844c0-.752.26-1.393.782-1.921A2.559 2.559 0 0 1 4.501 0c.74 0 1.37.265 1.89.794.52.53.78 1.17.78 1.92v1.372h.985c.232 0 .43.084.596.252.165.167.248.37.248.605v6.2a.832.832 0 0 1-.248.605.806.806 0 0 1-.596.252H.844a.806.806 0 0 1-.596-.252.832.832 0 0 1-.248-.605v-6.2a.83.83 0 0 1 .248-.605.806.806 0 0 1 .596-.252Zm3.658 5.057c.299 0 .553-.105.764-.315a1.03 1.03 0 0 0 .317-.757 1.13 1.13 0 0 0-.319-.778 1 1 0 0 0-.766-.35.993.993 0 0 0-.764.35 1.142 1.142 0 0 0-.317.786c0 .29.106.54.319.75.212.21.468.314.766.314Z"/>
</svg>
