<svg width="22" height="22" viewBox="0 0 22 22" fill="none" xmlns="http://www.w3.org/2000/svg">
<g clip-path="url(#clip0_750_3541)">
<path d="M7.33341 10.9997C7.33341 9.99134 6.50841 9.16634 5.50008 9.16634C4.49175 9.16634 3.66675 9.99134 3.66675 10.9997C3.66675 12.008 4.49175 12.833 5.50008 12.833C6.50841 12.833 7.33341 12.008 7.33341 10.9997ZM9.16675 10.9997C9.16675 12.008 9.99175 12.833 11.0001 12.833C12.0084 12.833 12.8334 12.008 12.8334 10.9997C12.8334 9.99134 12.0084 9.16634 11.0001 9.16634C9.99175 9.16634 9.16675 9.99134 9.16675 10.9997ZM14.6667 10.9997C14.6667 12.008 15.4917 12.833 16.5001 12.833C17.5084 12.833 18.3334 12.008 18.3334 10.9997C18.3334 9.99134 17.5084 9.16634 16.5001 9.16634C15.4917 9.16634 14.6667 9.99134 14.6667 10.9997Z" fill="#333333"/>
</g>
<defs>
<clipPath id="clip0_750_3541">
<rect width="22" height="22" fill="white" transform="matrix(0 -1 1 0 0 22)"/>
</clipPath>
</defs>
</svg>
