<svg xmlns="http://www.w3.org/2000/svg" width="13" height="13" fill="none" viewBox="0 0 13 13">
  <path fill="#F52929" d="m0 13 2.805-8.234 5.082 5.273L0 13Zm7.194-5.78-.513-.538 3.62-3.8c.321-.338.728-.51 1.221-.515.493-.005.9.161 1.222.499l.256.27-.513.538-.286-.301a.919.919 0 0 0-.664-.31c-.251-.004-.477.099-.679.31L7.194 7.22ZM4.796 4.766l-.513-.538.452-.475c.232-.243.34-.52.325-.832a1.18 1.18 0 0 0-.324-.783l-.423-.444.513-.538.392.412c.352.37.525.83.52 1.385-.005.554-.183 1.016-.535 1.386l-.407.427Zm1.221 1.22-.512-.539L7.797 3.04c.191-.2.284-.456.279-.768a1.097 1.097 0 0 0-.294-.768l-.92-.966L7.375 0l.95.998c.312.337.472.762.482 1.274.01.512-.145.937-.467 1.275L6.017 5.985ZM8.4 8.502l-.513-.538.71-.745a1.742 1.742 0 0 1 1.266-.57c.493-.01.915.17 1.267.539l.77.807-.514.539-.784-.824c-.231-.242-.473-.364-.724-.364s-.492.122-.724.364l-.754.792Z"/>
</svg>
